<svg xmlns="http://www.w3.org/2000/svg" xmlns:xlink="http://www.w3.org/1999/xlink" width="58" height="58" viewBox="0 0 58 58">
  <defs>
    <filter id="Oval" x="0" y="0" width="58" height="58" filterUnits="userSpaceOnUse">
      <feOffset dy="3" input="SourceAlpha"/>
      <feGaussianBlur stdDeviation="3" result="blur"/>
      <feFlood flood-opacity="0.102"/>
      <feComposite operator="in" in2="blur"/>
      <feComposite in="SourceGraphic"/>
    </filter>
    <filter id="_" x="12.215" y="8.923" width="33.446" height="39.845" filterUnits="userSpaceOnUse">
      <feOffset dy="3" input="SourceAlpha"/>
      <feGaussianBlur stdDeviation="3" result="blur-2"/>
      <feFlood flood-opacity="0.102"/>
      <feComposite operator="in" in2="blur-2"/>
      <feComposite in="SourceGraphic"/>
    </filter>
  </defs>
  <g transform="matrix(1, 0, 0, 1, 0, 0)" filter="url(#Oval)">
    <path id="Oval-2" data-name="Oval" d="M20,0A20,20,0,1,1,0,20,20,20,0,0,1,20,0Z" transform="translate(9 6)" fill="#5fd88b"/>
  </g>
  <g transform="matrix(1, 0, 0, 1, 0, 0)" filter="url(#_)">
    <path id="_2" data-name="?" d="M9.353,21.845H6.307a.734.734,0,0,1-.738-.738V18.369a.707.707,0,0,1,.216-.522.714.714,0,0,1,.522-.216H9.353a.773.773,0,0,1,.54.216.687.687,0,0,1,.229.522v2.738a.717.717,0,0,1-.216.524A.752.752,0,0,1,9.353,21.845Zm.092-5.814H6.4a.636.636,0,0,1-.461-.184.6.6,0,0,1-.184-.432c0-.42.011-.751.031-.983a5.428,5.428,0,0,1,.922-2.554A18.657,18.657,0,0,1,8.831,9.416a17.347,17.347,0,0,0,1.552-1.723,2.717,2.717,0,0,0,.569-1.415,2.129,2.129,0,0,0-.814-2,3.558,3.558,0,0,0-2.261-.738,3.356,3.356,0,0,0-3.6,2.983.88.88,0,0,1-.893.709H.709A.664.664,0,0,1,.2,7.015.788.788,0,0,1,0,6.462a6.12,6.12,0,0,1,1.03-3.17A6.99,6.99,0,0,1,3.816.907,9.5,9.5,0,0,1,8.093,0a9.518,9.518,0,0,1,4.2.814,5.6,5.6,0,0,1,2.4,2.077,5.065,5.065,0,0,1,.754,2.617,5.085,5.085,0,0,1-.693,2.677A17.666,17.666,0,0,1,12.708,10.8a18.055,18.055,0,0,0-1.523,1.8,4.284,4.284,0,0,0-.722,1.615c-.083.511-.135.863-.155,1.046a1.708,1.708,0,0,1-.337.585A.719.719,0,0,1,9.445,16.031Z" transform="translate(21.22 14.92)" fill="#fff"/>
  </g>
</svg>
